# AST/ASF file generated using VICON BodyLanguage
# -----------------------------------------------
:version 1.10
:name VICON
:units
  mass 1.0
  length 0.45
  angle deg
:documentation
   .ast/.asf automatically generated from VICON data using
   VICON BodyBuilder and BodyLanguage model FoxedUp or BRILLIANT.MOD
:root
   order TX TY TZ RX RY RZ
   axis XYZ
   position 0 0 0  
   orientation 0 0 0 
:bonedata
  begin
     id 1 
     name lhipjoint
     direction 0.630082 -0.636569 0.44472 
     length 2.82754 
     axis 0 0 0  XYZ
  end
  begin
     id 2 
     name lfemur
     direction 0.34202 -0.939693 0  
     length 7.26371  
     axis 0 0 20  XYZ
    dof rx ry rz
    limits (-160.0 20.0)
           (-70.0 70.0)
           (-60.0 70.0)
  end
  begin
     id 3 
     name ltibia
     direction 0.34202 -0.939693 0   
     length 7.88616   
     axis 0 0 20   XYZ
    dof rx
    limits (-10.0 170.0)
  end
  begin
     id 4 
     name lfoot
     direction 0.0603448 -0.165796 0.984312   
     length 1.77861   
     axis -90 7.62852e-016 20   XYZ
    dof rx rz
    limits (-45.0 90.0)
           (-70.0 20.0)
  end
  begin
     id 5 
     name ltoes
     direction 1.53577e-011 -4.21876e-011 1   
     length 0.902235   
     axis -90 7.62852e-016 20   XYZ
    dof rx
    limits (-90.0 20.0)
  end
  begin
     id 6 
     name rhipjoint
     direction -0.656778 -0.61817 0.431866   
     length 2.9117  
     axis 0 0 0  XYZ 
  end
  begin
     id 7 
     name rfemur
     direction -0.34202 -0.939693 0   
     length 6.81603   
     axis 0 0 -20   XYZ
    dof rx ry rz
    limits (-160.0 20.0)
           (-70.0 70.0)
           (-70.0 60.0)
  end
  begin
     id 8 
     name rtibia
     direction -0.34202 -0.939693 0   
     length 8.05997   
     axis 0 0 -20   XYZ
    dof rx
    limits (-10.0 170.0)
 end
 begin
     id 9 
     name rfoot
     direction -0.0862404 -0.236944 0.967688   
     length 1.84899  
     axis -90 -7.62852e-016 -20   XYZ
    dof rx rz
    limits (-45.0 90.0)
           (-20.0 70.0)
  end
  begin
     id 10 
     name rtoes
     direction -1.53561e-011 -4.21798e-011 1   
     length 0.931579   
     axis -90 -7.62852e-016 -20   XYZ
    dof rx
    limits (-90.0 20.0)
  end
  begin
     id 11 
     name lowerback
     direction -0.0110203 0.991769 -0.127564   
     length 2.05686   
     axis 0 0 0   XYZ
    dof rx ry rz
    limits (-20.0 45.0)
           (-30.0 30.0)
           (-30.0 30.0)
  end
  begin
     id 12 
     name upperback
     direction 0.0109719 0.99993 -0.00432479   
     length 2.06234   
     axis 0 0 0   XYZ
    dof rx ry rz
    limits (-20.0 45.0)
           (-30.0 30.0)
           (-30.0 30.0)
  end
  begin
     id 13 
     name thorax
     direction 0.0173308 0.998351 0.0547306   
     length 2.09856   
     axis 0 0 0   XYZ
    dof rx ry rz
    limits (-20.0 45.0)
           (-30.0 30.0)
           (-30.0 30.0)
  end
  begin
     id 14 
     name lowerneck
     direction -0.0311736 0.989033 0.144366   
     length 1.98151   
     axis 0 0 0   XYZ
    dof rx ry rz
    limits (-20.0 45.0)
           (-30.0 30.0)
           (-30.0 30.0)
  end
  begin
     id 15 
     name upperneck
     direction 0.0421057 0.975772 -0.214698   
     length 2.01457   
     axis 0 0 0   XYZ
    dof rx ry rz
    limits (-20.0 45.0)
           (-30.0 30.0)
           (-30.0 30.0)
  end
  begin
     id 16
     name head
     direction 0.0136911 0.995958 -0.0887718  
     length 2.03562  
     axis 0 0 0   XYZ
    dof rx ry rz
    limits (-20.0 45.0)
           (-30.0 30.0)
           (-30.0 30.0)
  end
  begin
     id 17 
     name lclavicle
     direction 0.915335 0.396201 0.0720134  
     length 4.16217  
     axis 0 0 0   XYZ
    dof ry rz
    limits (-20.0 10.0)
           (0.0 20.0)
  end
  begin
     id 18 
     name lhumerus
     direction 1 -4.48965e-011 6.383e-018   
     length 4.93042   
     axis -180 -30 -90   XYZ
    dof rx ry rz
    limits (-60.0 90.0)
           (-90.0 90.0)
           (-90.0 90.0)
  end
  begin
     id 19
     name lradius
     direction 1 -4.48972e-011 8.8689e-027   
     length 3.68177   
     axis -180 -30 -90   XYZ
    dof rx
    limits (-10.0 170.0)
  end
  begin
     id 20
     name lwrist
     direction 1 -4.48953e-011 1.17971e-026   
     length 1.84089   
     axis -7.69454e-015 90 90   XYZ
    dof ry
    limits (-180.0 0.0)
 end
  begin
     id 21 
     name lhand
     direction 1 -4.49027e-011 2.35802e-026   
     length 0.721479   
     axis -1.50533e-014 90 90   XYZ
    dof rx rz
    limits (-90.0 90.0)
           (-45.0 45.0)
  end
  begin
     id 22 
     name lfingers
     direction 1 -4.48915e-011 4.72027e-026   
     length 0.581675   
     axis -3.01059e-014 90 90   XYZ
    dof rx
    limits (0.0 90.0)
  end
  begin
     id 23
     name lthumb
     direction 0.707107 -6.34948e-011 0.707107   
     length 0.835172   
     axis -90 45 -5.12164e-014   XYZ
    dof rx rz
    limits (-45.0 45.0)
           (-45.0 45.0)
  end
  begin
     id 24 
     name rclavicle
     direction -0.882781 0.469197 0.0234974   
     length 3.95647  
     axis 0 0 0   XYZ 
    dof ry rz
    limits (-10.0 20.0)
           (-20.0 0.0)
  end
  begin
     id 25 
     name rhumerus
     direction -1 -4.48965e-011 -1.54906e-018  
     length 5.07905   
     axis -180 30 90   XYZ
    dof rx ry rz
    limits (-90.0 60.0)
           (-90.0 90.0)
           (-90.0 90.0)
  end
  begin
     id 26 
     name rradius
     direction -1 -4.48972e-011 5.47489e-027   
     length 3.54394   
     axis -180 30 90   XYZ
    dof rx
    limits (-10.0 170.0)
  end
  begin
     id 27 
     name rwrist
     direction -1 -4.48955e-011 1.17969e-026   
     length 1.77197   
     axis -7.69454e-015 -90 -90   XYZ
    dof ry
    limits (-180.0 0.0)
  end
  begin
     id 28
     name rhand
     direction -1 -4.48982e-011 2.35888e-026   
     length 0.681156   
     axis -1.50533e-014 -90 -90   XYZ
    dof rx rz
    limits (-90.0 90.0)
           (-45.0 45.0)
  end
  begin
     id 29
     name rfingers
     direction -1 -4.48955e-011 4.71877e-026   
     length 0.549165   
     axis -3.01059e-014 -90 -90   XYZ
    dof rx
    limits (0.0 90.0)
  end
  begin
     id 30
     name rthumb
     direction -0.707107 -6.3491e-011 0.707107   
     length 0.788495   
     axis -90 -45 5.12164e-014   XYZ
    dof rx rz
    limits (-45.0 45.0)
           (-45.0 45.0)
  end
:hierarchy
  begin
    root lhipjoint rhipjoint lowerback
    lhipjoint lfemur
    lfemur ltibia
    ltibia lfoot
    lfoot ltoes
    rhipjoint rfemur
    rfemur rtibia
    rtibia rfoot
    rfoot rtoes
    lowerback upperback
    upperback thorax
    thorax lowerneck lclavicle rclavicle
    lowerneck upperneck
    upperneck head
    lclavicle lhumerus
    lhumerus lradius
    lradius lwrist
    lwrist lhand lthumb
    lhand lfingers
    rclavicle rhumerus
    rhumerus rradius
    rradius rwrist
    rwrist rhand rthumb
    rhand rfingers
  end

#!OML:ASF H:\Bending\Project 1\Capture day 1\Session 1\Subject.ASF
:FULLY-SPECIFIED
:DEGREES
320
root -8.98296 18.0529 -16.2508 81.6307 90.6711 72.9508
lowerback 7.75351 0.478272 -1.05268
upperback -2.87678 0.668829 1.80313
thorax -7.41693 0.431818 2.39534
lowerneck -26.8616 -2.55655 -3.2911
upperneck 35.5271 -1.70037 0.315544
head 17.7257 -0.857802 0.405238
rclavicle 3.8763e-015 1.27222e-014
rhumerus -9.25449 10.3965 -77.8286
rradius 70.3883
rwrist -3.31252
rhand -22.195 -20.7916
rfingers 7.12502
rthumb 4.22042 -50.7295
lclavicle 3.8763e-015 1.27222e-014
lhumerus 0.668107 -32.6275 71.8523
lradius 66.5287
lwrist 32.9086
lhand -35.3409 13.4832
lfingers 7.12502
lthumb -8.47374 43.2932
rfemur 2.48974 5.17372 14.282
rtibia -9.54166e-015
rfoot -6.66523 -19.8239
rtoes -18.2879
lfemur -11.0926 -14.5443 -12.2092
ltibia 22.1498
lfoot -26.9892 21.9261
ltoes -29.977
321
root -8.9654 18.0496 -16.2503 87.0449 90.613 78.3906
lowerback 7.68989 0.530273 -1.05982
upperback -2.87608 0.734108 1.75575
thorax -7.38201 0.4624 2.34028
lowerneck -26.8209 -2.60297 -3.31797
upperneck 35.4277 -1.79193 0.376204
head 17.6653 -0.890127 0.416588
rclavicle 3.97569e-015 -4.77083e-015
rhumerus -12.879 10.3402 -78.0444
rradius 70.8614
rwrist -4.20638
rhand -22.2268 -21.9704
rfingers 7.12502
rthumb 4.18974 -51.9089
lclavicle 3.97569e-015 -4.77083e-015
lhumerus -2.93125 -33.5 73.0298
lradius 68.0055
lwrist 32.2882
lhand -35.4225 13.3028
lfingers 7.12502
lthumb -8.55249 43.1096
rfemur 2.55104 5.2422 14.255
rtibia 6.36111e-015
rfoot -6.48617 -19.9067
rtoes -19.1023
lfemur -10.9115 -14.5925 -12.2961
ltibia 22.0455
lfoot -27.2154 21.9081
ltoes -29.4048
322
root -8.94822 18.0465 -16.2501 96.4723 90.5669 87.8471
lowerback 7.61984 0.585679 -1.06228
upperback -2.85758 0.804814 1.71615
thorax -7.3246 0.495287 2.29014
lowerneck -26.7907 -2.63167 -3.3417
upperneck 35.2941 -1.85029 0.413755
head 17.5882 -0.913254 0.423873
rclavicle 3.67752e-015 -3.97569e-016
rhumerus -16.3643 10.2119 -78.2183
rradius 70.8483
rwrist -5.06377
rhand -22.0696 -23.541
rfingers 7.12502
rthumb 4.34153 -53.4765
lclavicle 3.67752e-015 -3.97569e-016
lhumerus -6.74539 -34.1062 74.4756
lradius 69.3167
lwrist 31.7259
lhand -35.3632 13.0292
lfingers 7.12502
lthumb -8.49534 42.8383
rfemur 2.60971 5.34023 14.2261
rtibia 1.59028e-014
rfoot -6.33637 -19.963
rtoes -19.7335
lfemur -10.7113 -14.6795 -12.3862
ltibia 21.9312
lfoot -27.4145 22.021
ltoes -29.3723
323
root -8.93202 18.0434 -16.2502 109.59 90.5489 101.003
lowerback 7.5586 0.637747 -1.07401
upperback -2.82391 0.871411 1.69722
thorax -7.2564 0.526972 2.26773
lowerneck -26.7726 -2.63187 -3.35311
upperneck 35.1363 -1.85436 0.408017
head 17.4994 -0.920359 0.421144
rclavicle -1.98785e-016 2.42517e-014
rhumerus -19.6664 10.0598 -78.2928
rradius 70.3828
rwrist -5.67813
rhand -21.6962 -25.0716
rfingers 7.12502
rthumb 4.70216 -54.9994
lclavicle -1.98785e-016 2.42517e-014
lhumerus -10.7765 -34.3549 76.1796
lradius 70.482
lwrist 31.3134
lhand -35.2256 12.7643
lfingers 7.12502
lthumb -8.36248 42.5788
rfemur 2.67351 5.46362 14.1936
rtibia 3.18055e-015
rfoot -6.25511 -19.9923
rtoes -19.9919
lfemur -10.4897 -14.7903 -12.4791
ltibia 21.8068
lfoot -27.5703 22.2322
ltoes -29.8273
324
root -8.9174 18.0401 -16.2504 124.147 90.5678 115.609
lowerback 7.51629 0.68136 -1.10661
upperback -2.78138 0.926354 1.70504
thorax -7.19007 0.554608 2.28694
lowerneck -26.7608 -2.60235 -3.35491
upperneck 34.9626 -1.80008 0.357495
head 17.402 -0.910072 0.40932
rclavicle -5.1684e-015 2.26615e-014
rhumerus -22.7755 9.9231 -78.2423
rradius 69.5488
rwrist -5.92778
rhand -21.4177 -25.5013
rfingers 7.12502
rthumb 4.97106 -55.4229
lclavicle -5.1684e-015 2.26615e-014
lhumerus -14.9803 -34.1916 78.0983
lradius 71.4968
lwrist 31.0954
lhand -35.0816 12.6001
lfingers 7.12502
lthumb -8.22357 42.42
rfemur 2.74384 5.60233 14.1533
rtibia 1.59028e-015
rfoot -6.25647 -20.0026
rtoes -19.8168
lfemur -10.2515 -14.9042 -12.5755
ltibia 21.6695
lfoot -27.6876 22.4718
ltoes -30.4861
